<?xml version="1.0" encoding="UTF-8" standalone="no"?>
<svg
   xmlns:dc="http://purl.org/dc/elements/1.1/"
   xmlns:cc="http://creativecommons.org/ns#"
   xmlns:rdf="http://www.w3.org/1999/02/22-rdf-syntax-ns#"
   xmlns:svg="http://www.w3.org/2000/svg"
   xmlns="http://www.w3.org/2000/svg"
   xmlns:sodipodi="http://sodipodi.sourceforge.net/DTD/sodipodi-0.dtd"
   xmlns:inkscape="http://www.inkscape.org/namespaces/inkscape"
   width="28.948317mm"
   height="28.275627mm"
   viewBox="0 0 28.948316 28.275628"
   version="1.1"
   id="svg8"
   inkscape:version="1.0.1 (c497b03c, 2020-09-10)"
   sodipodi:docname="uwmal_logo_simple.svg"
   inkscape:export-filename="/Users/mann/github/uwyomolanth.github.io/assets/img/avatar-icon.png"
   inkscape:export-xdpi="95.937798"
   inkscape:export-ydpi="95.937798">
  <defs
     id="defs2" />
  <sodipodi:namedview
     id="base"
     pagecolor="#ffffff"
     bordercolor="#666666"
     borderopacity="1.0"
     inkscape:pageopacity="0.0"
     inkscape:pageshadow="2"
     inkscape:zoom="5.0235966"
     inkscape:cx="70.865549"
     inkscape:cy="53.434266"
     inkscape:document-units="mm"
     inkscape:current-layer="g2025"
     inkscape:document-rotation="0"
     showgrid="false"
     fit-margin-top="0"
     fit-margin-left="0"
     fit-margin-right="0"
     fit-margin-bottom="0"
     inkscape:window-width="1252"
     inkscape:window-height="872"
     inkscape:window-x="250"
     inkscape:window-y="49"
     inkscape:window-maximized="0" />
  <metadata
     id="metadata5">
    <rdf:RDF>
      <cc:Work
         rdf:about="">
        <dc:format>image/svg+xml</dc:format>
        <dc:type
           rdf:resource="http://purl.org/dc/dcmitype/StillImage" />
        <dc:title></dc:title>
      </cc:Work>
    </rdf:RDF>
  </metadata>
  <g
     inkscape:label="Layer 1"
     inkscape:groupmode="layer"
     id="layer1"
     transform="translate(-108.93777,-148.23578)">
    <g
       id="g2025">
      <path
         style="fill:none;stroke:#000000;stroke-width:0.264583px;stroke-linecap:butt;stroke-linejoin:miter;stroke-opacity:1"
         d="M 146.43746,172.64114 Z"
         id="path1042" />
      <path
         style="fill:none;stroke:#000000;stroke-width:0.264583px;stroke-linecap:butt;stroke-linejoin:miter;stroke-opacity:1"
         d="m 146.43746,172.64114 v 0"
         id="path1044" />
      <rect
         style="opacity:0.999;fill:#ffffff;fill-opacity:1;stroke:none;stroke-width:0.25;stroke-miterlimit:4;stroke-dasharray:none;stroke-dashoffset:0;stroke-opacity:1"
         id="rect1872"
         width="28.924833"
         height="28.089458"
         x="108.96125"
         y="148.37605" />
      <path
         style="fill:#492f24;fill-opacity:1;stroke:#ffc525;stroke-width:0.5;stroke-linecap:butt;stroke-linejoin:miter;stroke-miterlimit:4;stroke-dasharray:none;stroke-opacity:1"
         d="m 120.8168,171.32819 0.10883,3.80001"
         id="path869" />
      <path
         style="fill:#492f24;fill-opacity:1;stroke:#ffc525;stroke-width:0.5;stroke-linecap:butt;stroke-linejoin:miter;stroke-miterlimit:4;stroke-dasharray:none;stroke-opacity:1"
         d="m 122.30362,170.78534 0.10883,5.24762"
         id="path871" />
      <path
         style="fill:#492f24;fill-opacity:1;stroke:#ffc525;stroke-width:0.5;stroke-linecap:butt;stroke-linejoin:miter;stroke-miterlimit:4;stroke-dasharray:none;stroke-opacity:1"
         d="m 124.26184,170.74914 0.25386,5.13905"
         id="path873" />
      <path
         style="fill:#492f24;fill-opacity:1;stroke:#ffc525;stroke-width:0.5;stroke-linecap:butt;stroke-linejoin:miter;stroke-miterlimit:4;stroke-dasharray:none;stroke-opacity:1"
         d="m 125.6036,171.11105 0.32638,3.80001"
         id="path875" />
      <path
         style="fill:#492f24;fill-opacity:1;stroke:#ffc525;stroke-width:0.5;stroke-linecap:butt;stroke-linejoin:miter;stroke-miterlimit:4;stroke-dasharray:none;stroke-opacity:1"
         d="m 129.37502,168.79487 2.53845,4.05333"
         id="path877" />
      <path
         style="fill:#492f24;fill-opacity:1;stroke:#ffc525;stroke-width:0.5;stroke-linecap:butt;stroke-linejoin:miter;stroke-miterlimit:4;stroke-dasharray:none;stroke-opacity:1"
         d="m 131.55083,167.27486 2.61099,4.23429"
         id="path879" />
      <path
         style="fill:#492f24;fill-opacity:1;stroke:#ffc525;stroke-width:0.5;stroke-linecap:butt;stroke-linejoin:miter;stroke-miterlimit:4;stroke-dasharray:none;stroke-opacity:1"
         d="m 133.4728,166.7682 1.63188,2.46095"
         id="path881" />
      <path
         style="fill:#492f24;fill-opacity:1;stroke:#ffc525;stroke-width:0.5;stroke-linecap:butt;stroke-linejoin:miter;stroke-miterlimit:4;stroke-dasharray:none;stroke-opacity:1"
         d="m 128.32337,170.56819 1.45055,2.78666"
         id="path883" />
      <path
         style="fill:#492f24;fill-opacity:1;stroke:#ffc525;stroke-width:0.5;stroke-linecap:butt;stroke-linejoin:miter;stroke-miterlimit:4;stroke-dasharray:none;stroke-opacity:1"
         d="m 132.16731,161.48438 4.93186,-0.14468"
         id="path885" />
      <path
         style="fill:#492f24;fill-opacity:1;stroke:#ffc525;stroke-width:0.5;stroke-linecap:butt;stroke-linejoin:miter;stroke-miterlimit:4;stroke-dasharray:none;stroke-opacity:1"
         d="m 132.74754,163.43867 4.46041,-0.18089"
         id="path887" />
      <path
         style="fill:#492f24;fill-opacity:1;stroke:#ffc525;stroke-width:0.5;stroke-linecap:butt;stroke-linejoin:miter;stroke-miterlimit:4;stroke-dasharray:none;stroke-opacity:1"
         d="m 134.05303,165.24819 2.39339,-0.14467"
         id="path889" />
      <path
         style="fill:#492f24;fill-opacity:1;stroke:#ffc525;stroke-width:0.5;stroke-linecap:butt;stroke-linejoin:miter;stroke-miterlimit:4;stroke-dasharray:none;stroke-opacity:1"
         d="m 132.82006,159.63868 3.00988,-0.14468"
         id="path891" />
      <path
         style="fill:#492f24;fill-opacity:1;stroke:#ffc525;stroke-width:0.5;stroke-linecap:butt;stroke-linejoin:miter;stroke-miterlimit:4;stroke-dasharray:none;stroke-opacity:1"
         d="m 128.86733,155.36821 3.5901,-3.04"
         id="path893" />
      <path
         style="fill:#492f24;fill-opacity:1;stroke:#ffc525;stroke-width:0.5;stroke-linecap:butt;stroke-linejoin:miter;stroke-miterlimit:4;stroke-dasharray:none;stroke-opacity:1"
         d="m 130.13655,156.81582 3.33625,-3.11239"
         id="path895" />
      <path
         style="fill:#492f24;fill-opacity:1;stroke:#ffc525;stroke-width:0.5;stroke-linecap:butt;stroke-linejoin:miter;stroke-miterlimit:4;stroke-dasharray:none;stroke-opacity:1"
         d="m 131.73216,157.64819 2.39339,-1.8457"
         id="path897" />
      <path
         style="fill:#492f24;fill-opacity:1;stroke:#ffc525;stroke-width:0.5;stroke-linecap:butt;stroke-linejoin:miter;stroke-miterlimit:4;stroke-dasharray:none;stroke-opacity:1"
         d="m 128.25085,153.70343 2.46591,-2.13523"
         id="path899" />
      <path
         style="fill:#492f24;fill-opacity:1;stroke:#ffc525;stroke-width:0.5;stroke-linecap:butt;stroke-linejoin:miter;stroke-miterlimit:4;stroke-dasharray:none;stroke-opacity:1"
         d="m 120.38165,149.6501 0.10883,2.85906"
         id="path901" />
      <path
         style="fill:#492f24;fill-opacity:1;stroke:#ffc525;stroke-width:0.5;stroke-linecap:butt;stroke-linejoin:miter;stroke-miterlimit:4;stroke-dasharray:none;stroke-opacity:1"
         d="m 122.30362,148.78154 0.21758,4.63238"
         id="path903" />
      <path
         style="fill:#492f24;fill-opacity:1;stroke:#ffc525;stroke-width:0.5;stroke-linecap:butt;stroke-linejoin:miter;stroke-miterlimit:4;stroke-dasharray:none;stroke-opacity:1"
         d="m 124.18932,148.74534 0.32638,4.70477"
         id="path905" />
      <path
         style="fill:#492f24;fill-opacity:1;stroke:#ffc525;stroke-width:0.5;stroke-linecap:butt;stroke-linejoin:miter;stroke-miterlimit:4;stroke-dasharray:none;stroke-opacity:1"
         d="m 126.03877,149.6501 0.10883,3.14857"
         id="path907" />
      <path
         style="fill:#492f24;fill-opacity:1;stroke:#ffc525;stroke-width:0.5;stroke-linecap:butt;stroke-linejoin:miter;stroke-miterlimit:4;stroke-dasharray:none;stroke-opacity:1"
         d="m 116.75529,151.42345 1.74064,2.09904"
         id="path845" />
      <path
         style="fill:#492f24;fill-opacity:1;stroke:#ffc525;stroke-width:0.5;stroke-linecap:butt;stroke-linejoin:miter;stroke-miterlimit:4;stroke-dasharray:none;stroke-opacity:1"
         d="m 114.47067,152.07487 2.86483,3.32952"
         id="path847" />
      <path
         style="fill:#492f24;fill-opacity:1;stroke:#ffc525;stroke-width:0.5;stroke-linecap:butt;stroke-linejoin:miter;stroke-miterlimit:4;stroke-dasharray:none;stroke-opacity:1"
         d="m 112.76628,153.30535 2.86483,3.14857"
         id="path849" />
      <path
         style="fill:#492f24;fill-opacity:1;stroke:#ffc525;stroke-width:0.5;stroke-linecap:butt;stroke-linejoin:miter;stroke-miterlimit:4;stroke-dasharray:none;stroke-opacity:1"
         d="m 111.93222,155.58535 1.74065,1.70095"
         id="path851" />
      <path
         style="fill:#492f24;fill-opacity:1;stroke:#ffc525;stroke-width:0.5;stroke-linecap:butt;stroke-linejoin:miter;stroke-miterlimit:4;stroke-dasharray:none;stroke-opacity:1"
         d="m 109.97399,159.31297 3.55384,0.0362"
         id="path853" />
      <path
         style="fill:#492f24;fill-opacity:1;stroke:#ffc525;stroke-width:0.5;stroke-linecap:butt;stroke-linejoin:miter;stroke-miterlimit:4;stroke-dasharray:none;stroke-opacity:1"
         d="m 109.13993,161.52058 5.18568,-0.18089"
         id="path855" />
      <path
         style="fill:#828282;fill-opacity:1;stroke:#828282;stroke-width:0.26458300000000001px;stroke-linecap:butt;stroke-linejoin:miter;stroke-opacity:1"
         d="m 113.01168,166.46623 c 0,0 0.87603,-0.63616 1.12633,-0.71567 0.2503,-0.0796 0.5006,-0.0796 0.75088,-0.1988 0.25031,-0.11928 0.37546,-0.3976 0.70919,-0.43735 0.33373,-0.0397 0.33373,-0.0397 0.58401,-0.19881 0.2503,-0.15903 1.25149,-0.99398 1.25149,-0.99398 0,0 1.08461,0.91447 1.16805,1.07351 0.0834,0.15903 0.75088,0.71567 0.75088,0.71567 l 0.62576,-0.31808 0.584,-0.0397 0.29202,0.31808 0.37545,0.15903 0.37544,-0.19878 h 0.25029 l 0.25031,-0.15904 0.58403,-0.47712 0.83431,-0.87471 0.41715,0.15904 0.25029,0.15904 0.79263,-0.47711 0.54229,-0.47712 0.54231,-0.35784 0.50059,-0.35784 0.5006,-0.31807 0.54231,-0.39761 0.41717,0.0398 0.75088,0.63616 0.7509,0.75543 c 0,0 0.5423,0.59639 0.70916,0.71566 0.16686,0.11928 0.83432,0.55665 0.83432,0.55665 l 0.50059,0.19879 0.87604,-0.0796 0.62574,-0.0796 0.50059,0.39759 c 0,0 0.41716,0.35784 0.58403,0.43736 0.16686,0.0796 0.50058,0.39759 0.50058,0.39759 l -0.16685,0.47712 -0.33373,0.0796 -0.58403,-0.55663 -0.58402,-0.35785 -0.29202,-0.19878 c 0,0 0,0.15903 -0.33371,0.59638 -0.33374,0.43736 -0.5006,0.55664 -0.66747,0.75543 -0.16687,0.1988 -0.0833,0.1988 -0.2503,-0.23855 -0.16686,-0.43736 -0.16686,-0.63616 -0.37544,-0.71567 -0.20858,-0.0796 -0.20858,-0.35784 -0.37545,-0.39759 -0.16686,-0.0398 -0.45887,-0.0795 -0.45887,-0.0795 0,0 0.12321,-0.88191 -0.47806,-0.72179 l -0.85684,-0.8687 -0.66745,0.23856 -0.41718,0.15903 -0.20857,0.1988 0.12515,-0.43736 0.20856,-0.39759 c 0,0 0.0834,-0.11928 0.0834,-0.27832 0,-0.15904 -0.0834,-0.27832 -0.0834,-0.27832 l -0.0834,-0.15901 -1.04294,0.55666 -0.95946,0.47713 -0.91777,0.59639 c 0,0 -0.29201,0.31808 -0.45886,0.47711 -0.16686,0.15905 -0.12514,0.23856 -0.54232,0.23856 -0.4172,0 -0.12515,-0.35789 -0.37544,-0.39759 -0.2503,-0.0398 -0.33373,0.27831 -0.5423,0.43735 -0.20859,0.15904 -0.75089,1.07352 -0.95948,1.15302 -0.20858,0.0796 -0.29201,-0.0795 -0.54231,-0.0795 -0.25029,0 -0.66745,0.31807 -0.66745,0.31807 l -0.58403,0.35785 -0.41715,0.31807 -0.45889,0.31807 c 0,0 -0.50059,0.19886 -0.66745,0.23856 -0.16687,0.0398 -0.33373,-0.0397 -0.33373,-0.0397 l 0.20859,-0.1988 c 0,0 0.20854,-0.1988 0.2503,-0.35785 0.0416,-0.15903 0.0833,-0.31807 -0.16687,-0.51687 -0.25031,-0.19884 -0.45887,0.0397 -0.45887,0.0397 l -0.41717,0.15904 0.20858,-0.51688 0.0418,-0.39758 -0.29202,0.0795 -0.45888,0.0796 -0.33371,0.15903 0.25028,-0.43735 0.54231,-0.31807 -0.12514,-0.35784 -0.20859,-0.63615 -0.20858,0.19879 -0.62573,0.39761 -0.54231,0.31807 -0.37545,0.0397 -0.33371,0.39761 -0.45891,0.19879 -0.79259,0.31808 h -1.08461 v 0"
         id="path1034"
         sodipodi:nodetypes="csscccscccccccccccccccccccccscccccsccccccssssccccccccccccccccccccccccccccccccssscsscccccscccccc" />
      <path
         style="fill:#492f24;fill-opacity:1;stroke:#ffc525;stroke-width:0.5;stroke-linecap:butt;stroke-linejoin:miter;stroke-miterlimit:4;stroke-dasharray:none;stroke-opacity:1"
         d="m 109.57509,163.72821 4.75052,-0.36191"
         id="path857" />
      <path
         style="fill:#492f24;fill-opacity:1;stroke:#ffc525;stroke-width:0.5;stroke-linecap:butt;stroke-linejoin:miter;stroke-miterlimit:4;stroke-dasharray:none;stroke-opacity:1"
         d="m 111.02563,165.6101 2.61099,-0.28951"
         id="path859" />
      <path
         style="fill:#492f24;fill-opacity:1;stroke:#ffc525;stroke-width:0.5;stroke-linecap:butt;stroke-linejoin:miter;stroke-miterlimit:4;stroke-dasharray:none;stroke-opacity:1"
         d="m 112.65749,169.4101 1.92197,-2.35238"
         id="path861" />
      <path
         style="fill:#492f24;fill-opacity:1;stroke:#ffc525;stroke-width:0.5;stroke-linecap:butt;stroke-linejoin:miter;stroke-miterlimit:4;stroke-dasharray:none;stroke-opacity:1"
         d="m 116.46027,167.41472 -3.26373,4.05335"
         id="path863"
         sodipodi:nodetypes="cc" />
      <path
         style="fill:#492f24;fill-opacity:1;stroke:#ffc525;stroke-width:0.5;stroke-linecap:butt;stroke-linejoin:miter;stroke-miterlimit:4;stroke-dasharray:none;stroke-opacity:1"
         d="m 114.50694,172.63106 3.19119,-4.34287"
         id="path865" />
      <path
         style="fill:#492f24;fill-opacity:1;stroke:#ffc525;stroke-width:0.5;stroke-linecap:butt;stroke-linejoin:miter;stroke-miterlimit:4;stroke-dasharray:none;stroke-opacity:1"
         d="m 118.89484,169.69963 -2.17582,3.65522"
         id="path867" />
      <path
         style="fill:none;stroke:#492f24;stroke-width:0.5;stroke-linecap:butt;stroke-linejoin:miter;stroke-miterlimit:4;stroke-dasharray:none;stroke-opacity:1"
         d="m 118.89035,151.41825 c 4.11107,3.66571 7.20544,1.98777 8.95286,0.18089 6.19954,-1.48348 6.4913,4.50831 6.32234,6.50697 -3.64163,3.84598 -1.70164,5.47229 0.98713,8.53154 1.0967,4.61735 -3.07317,7.83951 -7.61559,6.50052 -1.89347,-3.5222 -6.32064,-3.35637 -8.32036,-0.12911 -3.94045,1.4512 -7.91331,-1.05295 -6.37962,-5.99042 1.6207,-2.82097 2.8391,-6.40391 -0.65234,-9.28585 -0.94732,-4.62481 2.34747,-7.12112 6.70558,-6.31454 z"
         id="path841"
         sodipodi:nodetypes="ccccccccc" />
      <path
         style="fill:none;stroke:#492f24;stroke-width:0.5;stroke-linecap:butt;stroke-linejoin:miter;stroke-miterlimit:4;stroke-dasharray:none;stroke-opacity:1"
         d="m 128.00545,151.62 c 0.27369,5.49504 3.64401,6.51423 6.1601,6.48609 5.41292,3.36132 2.53117,7.24754 0.98713,8.53154 -5.3009,0.11516 -6.49909,1.98645 -7.61559,6.50052 -2.5225,4.02249 -6.08438,4.0379 -8.32036,-0.12911 1.18176,-3.81911 -2.67333,-6.83711 -6.37962,-5.99042 -3.80296,-1.77941 -5.46132,-6.7987 -0.86277,-9.17775 3.15027,-0.83048 7.21477,-2.04361 6.81743,-6.54799 2.63273,-3.92164 6.72749,-3.33498 9.21368,0.32711 z"
         id="path843"
         sodipodi:nodetypes="ccccccccc" />
      <ellipse
         style="opacity:0.999;fill:none;stroke:none;stroke-width:0.264583;stroke-miterlimit:10"
         id="path965"
         cx="123.67574"
         cy="162.3736"
         rx="14.023696"
         ry="14.137814" />
      <text
         xml:space="preserve"
         style="font-style:normal;font-weight:normal;font-size:3.88056px;line-height:1.25;font-family:sans-serif;fill:#492f24;fill-opacity:1;stroke:none;stroke-width:0.264583"
         x="123.34866"
         y="156.00876"
         id="text1084"><tspan
           sodipodi:role="line"
           id="tspan1082"
           x="123.34866"
           y="156.00876"
           style="font-style:normal;font-variant:normal;font-weight:normal;font-stretch:normal;font-size:3.88056px;font-family:Rockwell;-inkscape-font-specification:Rockwell;text-align:center;letter-spacing:0.264583px;text-anchor:middle;fill:#492f24;fill-opacity:1;stroke-width:0.264583" /><tspan
           sodipodi:role="line"
           x="123.34866"
           y="161.17053"
           style="font-style:normal;font-variant:normal;font-weight:normal;font-stretch:normal;font-size:4.23333px;font-family:Rockwell;-inkscape-font-specification:Rockwell;text-align:center;text-anchor:middle;fill:#492f24;fill-opacity:1;stroke-width:0.264583"
           id="tspan1088">M.A.G.E</tspan><tspan
           sodipodi:role="line"
           x="123.34866"
           y="166.26959"
           style="font-style:normal;font-variant:normal;font-weight:normal;font-stretch:normal;font-size:4.23333px;font-family:Rockwell;-inkscape-font-specification:Rockwell;text-align:center;letter-spacing:0.264583px;text-anchor:middle;fill:#492f24;fill-opacity:1;stroke-width:0.264583"
           id="tspan1086" /></text>
    </g>
  </g>
</svg>
